<svg xmlns="http://www.w3.org/2000/svg" width="48" height="48" fill="none" viewBox="0 0 48 48">
  <path stroke="#000" stroke-linecap="round" stroke-linejoin="round" stroke-width="2" d="M21.733 36h-7.066A2.667 2.667 0 0 1 12 33.333V14.667A2.667 2.667 0 0 1 14.667 12h18.666A2.667 2.667 0 0 1 36 14.667V28l-4.133-4.133a2.667 2.667 0 0 0-3.752.018L16 36"/>
  <path stroke="#000" stroke-linecap="round" stroke-linejoin="round" stroke-width="2" d="m27 34 4-4 4 4m-4 3v-7m-11-8c1.657 0 3-1.12 3-2.5S21.657 17 20 17s-3 1.12-3 2.5 1.343 2.5 3 2.5Z"/>
</svg>
