<svg xmlns="http://www.w3.org/2000/svg" width="48" height="48" fill="none" viewBox="0 0 48 48">
  <path stroke="#000" stroke-linecap="round" stroke-linejoin="round" stroke-width="2" d="M13 34.625v-20.25a3.34 3.34 0 0 1 1.007-2.386 3.47 3.47 0 0 1 2.43-.989h17.188c.365 0 .714.142.972.395.258.254.403.597.403.955v24.3c0 .358-.145.701-.403.955a1.388 1.388 0 0 1-.972.395H16.437a3.47 3.47 0 0 1-2.43-.989A3.344 3.344 0 0 1 13 34.625Zm0 0a3.34 3.34 0 0 1 1.007-2.386 3.47 3.47 0 0 1 2.43-.989H35M19 23h11m-11-6h8"/>
</svg>
