<svg xmlns="http://www.w3.org/2000/svg" width="48" height="48" fill="none" viewBox="0 0 48 48">
  <path stroke="#000" stroke-linecap="round" stroke-linejoin="round" stroke-width="2" d="m34 26.132-2.854-2.462c-.509-.43-1.192-.67-1.903-.67-.712 0-1.395.24-1.903.67L20 30"/>
  <path stroke="#000" stroke-linecap="round" stroke-linejoin="round" stroke-width="2" d="M13 33.75v-19.5c0-.862.346-1.689.961-2.298a3.297 3.297 0 0 1 2.32-.952h16.407c.348 0 .681.137.928.38.246.245.384.575.384.92v23.4c0 .345-.138.675-.384.92a1.32 1.32 0 0 1-.928.38H16.28c-.87 0-1.705-.342-2.32-.952A3.234 3.234 0 0 1 13 33.75Zm0 0c0-.862.346-1.689.961-2.298a3.297 3.297 0 0 1 2.32-.952H34"/>
  <path stroke="#000" stroke-linecap="round" stroke-linejoin="round" stroke-width="2" d="M21 21c1.657 0 3-1.12 3-2.5S22.657 16 21 16s-3 1.12-3 2.5 1.343 2.5 3 2.5Z"/>
</svg>
