<svg xmlns="http://www.w3.org/2000/svg" width="48" height="48" fill="none" viewBox="0 0 48 48">
  <path stroke="#000" stroke-linecap="round" stroke-linejoin="round" stroke-width="2" d="M28 32h-7m10-5H21m-8.3 11h21.6a2.7 2.7 0 0 0 2.7-2.7V13.7a2.7 2.7 0 0 0-2.7-2.7H18.1a2.7 2.7 0 0 0-2.7 2.7v21.6a2.7 2.7 0 0 1-2.7 2.7Zm0 0a2.7 2.7 0 0 1-2.7-2.7V23.15a2.7 2.7 0 0 1 2.7-2.7h2.7"/>
  <path stroke="#000" stroke-linecap="round" stroke-linejoin="round" stroke-width="2" d="M29.75 17h-7.5c-.69 0-1.25.56-1.25 1.25v2.5c0 .69.56 1.25 1.25 1.25h7.5c.69 0 1.25-.56 1.25-1.25v-2.5c0-.69-.56-1.25-1.25-1.25Z"/>
</svg>
