<svg xmlns="http://www.w3.org/2000/svg" width="48" height="48" fill="none" viewBox="0 0 48 48">
  <path stroke="#000" stroke-linecap="round" stroke-linejoin="round" stroke-width="2" d="M28.571 13a2.58 2.58 0 0 0-1.818.748A2.548 2.548 0 0 0 26 15.556v7.666c0 .678.27 1.328.753 1.807a2.58 2.58 0 0 0 1.818.749 1.28 1.28 0 0 1 1.286 1.278v1.277c0 .678-.27 1.328-.753 1.807a2.58 2.58 0 0 1-1.818.749 1.29 1.29 0 0 0-.91.374 1.28 1.28 0 0 0-.376.904v2.555A1.286 1.286 0 0 0 27.286 36a7.738 7.738 0 0 0 5.454-2.245A7.643 7.643 0 0 0 35 28.332V15.556c0-.678-.27-1.328-.753-1.807A2.58 2.58 0 0 0 32.429 13H28.57Zm-14 0a2.58 2.58 0 0 0-1.818.748A2.548 2.548 0 0 0 12 15.556v7.666c0 .678.27 1.328.753 1.807a2.58 2.58 0 0 0 1.818.749 1.28 1.28 0 0 1 1.286 1.278v1.277c0 .678-.27 1.328-.753 1.807a2.58 2.58 0 0 1-1.818.749 1.29 1.29 0 0 0-.91.374 1.28 1.28 0 0 0-.376.904v2.555A1.286 1.286 0 0 0 13.286 36a7.738 7.738 0 0 0 5.455-2.245A7.643 7.643 0 0 0 21 28.332V15.556c0-.678-.27-1.328-.753-1.807A2.58 2.58 0 0 0 18.429 13H14.57Z"/>
</svg>
