<svg xmlns="http://www.w3.org/2000/svg" width="48" height="48" fill="none" viewBox="0 0 48 48">
  <path stroke="#000" stroke-linecap="round" stroke-linejoin="round" stroke-width="2" d="m30 25.184 8.705 5.68a.847.847 0 0 0 1.177-.26.803.803 0 0 0 .118-.42V16.817a.803.803 0 0 0-.112-.409.826.826 0 0 0-.306-.299.847.847 0 0 0-.835.003L30 21.106M26.714 14H10.286C8.47 14 7 15.492 7 17.333v13.334C7 32.507 8.471 34 10.286 34h16.428C28.53 34 30 32.508 30 30.667V17.333C30 15.493 28.529 14 26.714 14Z"/>
</svg>
